<?xml version="1.0" standalone="no"?><!DOCTYPE svg PUBLIC "-//W3C//DTD SVG 1.1//EN" "http://www.w3.org/Graphics/SVG/1.1/DTD/svg11.dtd"><svg t="1605665250188" class="icon" viewBox="0 0 1024 1024" version="1.1" xmlns="http://www.w3.org/2000/svg" p-id="1202" xmlns:xlink="http://www.w3.org/1999/xlink" width="200" height="200"><defs><style type="text/css"></style></defs><path d="M98 869.99h829.99v89.57H98v-89.57z m768.66-238.85H665.29c-18.16-20.82-31.06-44.42-33.17-70.87-8.65-108.22 111.43-160.04 111.43-292.76 0-112.73-88.38-203.64-230.55-203.64-142.18 0-230.56 90.91-230.56 203.64 0 132.73 120.08 184.55 111.43 292.76-2.11 26.46-15.01 50.05-33.17 70.87H159.34c-33.87 0-61.33 26.67-61.33 59.57v119.57H928V690.71c0-32.9-27.46-59.57-61.34-59.57z m0 0" p-id="1203"></path></svg>